<?xml version="1.0" standalone="no"?>
<!DOCTYPE svg PUBLIC "-//W3C//DTD SVG 20010904//EN"
 "http://www.w3.org/TR/2001/REC-SVG-20010904/DTD/svg10.dtd">
<svg version="1.0" xmlns="http://www.w3.org/2000/svg"
 width="348.000000pt" height="221.000000pt" viewBox="0 0 348.000000 221.000000"
 preserveAspectRatio="xMidYMid meet">

<g transform="translate(0.000000,221.000000) scale(0.100000,-0.100000)"
fill="#000000" stroke="none">
<path d="M1575 2143 c-74 -11 -197 -48 -272 -83 -393 -184 -632 -602 -583
-1020 15 -136 42 -227 100 -345 128 -261 372 -458 655 -531 93 -24 113 -25
275 -22 172 4 177 5 288 43 147 49 264 119 372 222 172 163 273 354 310 586
17 106 8 299 -20 402 -101 375 -399 658 -775 736 -85 18 -265 24 -350 12z m25
-400 l0 -188 -109 -1 c-139 -2 -180 -21 -223 -103 l-28 -53 0 -247 c0 -244 0
-248 25 -298 27 -54 78 -97 136 -113 19 -6 71 -10 116 -10 l83 0 0 -185 c0
-163 -2 -185 -16 -185 -9 0 -57 14 -108 31 -253 84 -443 284 -518 546 -19 64
-22 102 -22 213 0 124 3 143 32 230 50 151 130 271 248 371 68 59 232 142 319
163 33 7 61 14 63 15 1 1 2 -83 2 -186z m422 133 c231 -94 405 -295 469 -544
23 -92 25 -265 4 -367 -19 -90 -99 -252 -164 -331 -109 -131 -290 -239 -453
-269 l-38 -7 0 185 0 184 103 5 c109 5 160 22 204 70 49 52 53 80 53 343 0
267 -2 277 -59 338 -49 53 -90 67 -201 67 l-100 0 0 189 0 189 62 -14 c34 -8
88 -25 120 -38z m-43 -550 c8 -9 11 -69 9 -192 l-3 -179 -260 0 -260 0 -3 180
c-1 98 0 185 2 192 8 20 499 19 515 -1z"/>
</g>
</svg>
