<?xml version="1.0" encoding="UTF-8"?> <svg xmlns="http://www.w3.org/2000/svg" width="206" height="180" viewBox="0 0 206 180" fill="none"> <g opacity="0.4"> <path d="M202.122 155.71C204.264 142.516 195.304 130.084 182.11 127.942C168.916 125.801 156.484 134.76 154.343 147.954C152.201 161.148 161.161 173.58 174.355 175.722C187.548 177.864 199.98 168.904 202.122 155.71Z" fill="#B7A99A"></path> <path d="M154.231 23.3737C132.175 8.15207 106.01 0 79.2112 0C52.4125 0 26.2478 8.15207 4.19156 23.3737C2.77264 24.3548 0 26.3978 0 26.3978V48.4082C10.3237 58.7287 36.1903 66.0096 44.0052 66.0096V44.0086C54.7201 39.0222 66.6148 35.2094 79.2112 35.2094C91.8077 35.2094 103.702 39.0222 114.414 44.0086L0 96.8161C0 157.361 79.2019 176.027 79.2019 176.027C79.2019 176.027 158.413 157.348 158.413 96.8161V26.4009C158.413 26.4009 155.637 24.3579 154.231 23.3737ZM79.2112 140.824C79.1957 140.824 44.0083 128.784 44.0083 115.299V115.231L114.417 82.7759V115.299C114.417 128.784 79.2112 140.824 79.2112 140.824Z" fill="#B7A99A"></path> </g> </svg> 