<?xml version="1.0" standalone="no"?>
<!DOCTYPE svg PUBLIC "-//W3C//DTD SVG 20010904//EN"
 "http://www.w3.org/TR/2001/REC-SVG-20010904/DTD/svg10.dtd">
<svg version="1.0" xmlns="http://www.w3.org/2000/svg"
 width="321.000000pt" height="294.000000pt" viewBox="0 0 321.000000 294.000000"
 preserveAspectRatio="xMidYMid meet">

<g transform="translate(0.000000,294.000000) scale(0.100000,-0.100000)"
fill="#000000" stroke="none">
<path d="M2983 2913 c-7 -2 -13 -11 -13 -19 0 -10 10 -12 45 -7 39 5 49 2 70
-17 71 -67 -19 -169 -100 -116 -15 10 -30 27 -35 39 -7 18 -9 19 -9 4 -1 -10
12 -32 28 -48 23 -22 39 -29 68 -29 96 1 135 112 62 174 -29 25 -82 33 -116
19z"/>
<path d="M1494 2780 c-379 -33 -690 -229 -785 -495 l-22 -60 -106 0 c-92 0
-112 -3 -156 -25 -73 -35 -126 -96 -163 -184 -49 -117 -63 -180 -63 -296 -1
-219 81 -430 238 -615 60 -70 178 -171 234 -201 l28 -14 -6 -87 c-10 -155 36
-279 145 -394 155 -165 399 -214 590 -118 64 32 144 106 162 150 7 16 15 29
19 29 3 0 17 -21 31 -47 33 -62 131 -160 205 -205 33 -20 96 -49 140 -64 67
-23 97 -28 186 -28 92 -1 110 2 128 18 35 32 27 53 -36 85 -112 57 -206 185
-220 299 l-5 48 74 17 c351 83 656 461 734 911 23 132 15 338 -20 471 -79 304
-277 549 -551 680 -211 102 -509 149 -781 125z m361 -71 c314 -38 570 -172
727 -378 206 -273 262 -679 141 -1039 -110 -328 -349 -562 -648 -633 -27 -6
-54 -15 -58 -19 -5 -5 -10 -30 -11 -56 -6 -139 39 -249 141 -344 l67 -63 -74
7 c-216 22 -398 137 -508 323 -37 62 -52 76 -52 48 0 -8 -4 -15 -9 -15 -5 0
-21 -24 -35 -54 -51 -105 -152 -165 -291 -173 -100 -7 -167 7 -258 55 -162 84
-249 244 -252 465 l-1 107 -63 38 c-35 20 -95 66 -133 101 -160 147 -249 333
-278 576 -14 120 -5 284 16 292 8 3 14 13 14 22 0 29 58 118 101 154 69 59
164 81 248 57 19 -5 38 -15 42 -21 4 -6 26 29 53 82 25 52 68 122 96 156 127
156 332 268 562 307 102 17 342 20 463 5z"/>
<path d="M1605 2644 c-201 -22 -455 -112 -562 -200 -15 -13 8 -2 52 24 357
211 808 222 1161 27 35 -19 64 -31 64 -26 0 12 -155 86 -240 114 -141 48 -349
74 -475 61z"/>
<path d="M1203 2471 c-55 -27 -128 -67 -161 -89 -59 -41 -144 -127 -163 -166
-6 -12 0 -7 13 9 79 103 164 166 323 241 52 24 95 46 95 49 0 7 3 9 -107 -44z"/>
<path d="M989 2403 c-13 -16 -12 -17 4 -4 9 7 17 15 17 17 0 8 -8 3 -21 -13z"/>
<path d="M2396 2398 c4 -7 24 -38 44 -68 21 -30 58 -97 84 -147 83 -166 122
-313 133 -495 3 -61 10 -108 16 -108 14 0 2 206 -18 300 -35 170 -103 325
-197 452 -32 43 -60 78 -64 78 -3 0 -2 -6 2 -12z"/>
<path d="M944 2368 l-19 -23 23 19 c21 18 27 26 19 26 -2 0 -12 -10 -23 -22z"/>
<path d="M2429 2278 c49 -67 87 -142 122 -243 15 -44 28 -72 28 -62 1 26 -36
131 -69 196 -31 62 -100 161 -113 161 -4 0 10 -24 32 -52z"/>
<path d="M2240 2055 c0 -3 11 -31 24 -63 81 -193 100 -287 101 -508 1 -105 5
-196 9 -202 4 -7 18 -12 31 -12 33 0 40 40 39 215 -2 163 -28 283 -88 407 -52
105 -116 195 -116 163z"/>
<path d="M920 1879 c-19 -4 -41 -6 -47 -4 -7 2 -13 -1 -13 -7 0 -6 -8 -17 -17
-24 -15 -11 -15 -13 -3 -14 13 0 15 -41 12 -326 -3 -321 0 -366 29 -348 6 3 6
146 3 345 -4 202 -4 339 2 339 5 0 10 -114 11 -268 1 -147 5 -296 10 -331 l8
-65 55 -12 c30 -7 89 -13 130 -14 127 0 194 29 230 100 23 46 26 100 6 139
-15 27 -99 111 -113 111 -27 1 -33 17 -18 53 8 20 15 62 15 94 0 164 -140 272
-300 232z m92 -55 c61 -31 111 -140 91 -199 -13 -39 -52 -66 -106 -72 l-45 -5
-6 38 c-3 22 -8 90 -12 152 l-6 113 28 -7 c16 -4 41 -13 56 -20z m168 -167 c1
-108 -45 -153 -182 -182 -20 -4 -28 -12 -28 -26 0 -20 4 -21 53 -17 29 2 68
12 86 21 32 16 36 16 76 -2 69 -31 85 -86 40 -139 -28 -33 -75 -48 -182 -58
-84 -7 -78 -16 -87 133 l-6 91 43 7 c154 25 205 115 153 270 -4 11 2 4 13 -15
12 -21 20 -54 21 -83z m105 -387 c-16 -31 -61 -60 -92 -60 -10 0 1 9 24 21 23
11 49 31 58 45 22 34 29 30 10 -6z"/>
<path d="M344 1725 c4 -136 37 -244 107 -349 43 -66 159 -191 159 -172 0 4
-31 41 -68 81 -115 123 -175 265 -192 451 l-9 99 3 -110z"/>
<path d="M1975 1628 c-93 -36 -144 -108 -153 -215 -4 -54 -1 -70 23 -118 36
-75 86 -108 169 -113 50 -3 69 1 106 20 46 25 64 60 37 71 -7 3 -34 1 -59 -4
-72 -13 -132 11 -169 68 -11 15 -19 31 -19 35 0 3 19 9 43 13 110 19 187 97
187 190 0 62 -79 87 -165 53z m57 -53 c24 -53 -25 -106 -124 -133 -33 -9 -38
-8 -38 6 0 33 43 104 78 127 46 32 69 32 84 0z m-137 -222 c3 -21 14 -49 22
-63 16 -24 16 -24 -2 -10 -21 18 -45 70 -45 100 0 33 17 14 25 -27z"/>
<path d="M1595 1620 c-4 -6 -4 -53 0 -104 l7 -93 -26 -7 c-57 -14 -95 39 -104
141 -2 35 -8 63 -12 63 -5 0 -12 -17 -18 -37 -6 -25 -10 -30 -11 -16 -1 12 -5
25 -11 28 -17 10 -11 -105 8 -159 22 -64 73 -106 136 -113 44 -5 45 -6 52 -48
10 -68 0 -85 -49 -85 -55 0 -158 -25 -205 -49 -50 -25 -106 -89 -122 -136 -16
-48 -8 -120 17 -154 11 -14 35 -34 54 -43 130 -67 300 65 341 265 l12 59 64
-4 c52 -2 67 0 75 14 19 30 -8 48 -73 48 l-57 0 -7 93 c-7 104 -44 328 -56
340 -4 5 -11 4 -15 -3z m5 -518 c0 -40 -62 -164 -98 -194 -26 -22 -36 -24 -69
-18 -58 11 -72 20 -88 51 -22 41 -18 73 10 108 33 38 86 56 238 80 4 0 7 -12
7 -27z"/>
<path d="M432 1560 c0 -14 2 -19 5 -12 2 6 2 18 0 25 -3 6 -5 1 -5 -13z"/>
<path d="M445 1505 c9 -49 61 -146 105 -196 44 -51 147 -125 158 -114 4 4 1
10 -6 13 -8 2 -41 25 -75 51 -67 50 -133 139 -166 223 -12 29 -19 40 -16 23z"/>
<path d="M2284 1157 c-24 -21 -25 -24 -10 -39 9 -9 16 -21 16 -26 0 -17 37
-42 62 -42 33 0 58 29 58 67 0 61 -74 85 -126 40z"/>
<path d="M831 724 c0 -11 3 -14 6 -6 3 7 2 16 -1 19 -3 4 -6 -2 -5 -13z"/>
<path d="M850 657 c0 -29 108 -167 131 -167 5 0 -9 17 -32 37 -22 20 -54 60
-70 88 -16 27 -29 46 -29 42z"/>
<path d="M1016 529 c6 -11 84 -52 89 -47 2 2 -19 15 -46 29 -27 15 -46 23 -43
18z"/>
<path d="M1315 470 c-11 -5 -38 -9 -60 -10 -38 -2 -38 -2 -12 -10 28 -8 94 4
112 21 11 11 -13 11 -40 -1z"/>
<path d="M1280 420 l-45 -7 47 -1 c26 -1 50 3 53 8 3 6 3 9 -2 8 -4 0 -28 -4
-53 -8z"/>
<path d="M3202 1920 c0 -14 2 -19 5 -12 2 6 2 18 0 25 -3 6 -5 1 -5 -13z"/>
<path d="M400 838 c-27 -30 -35 -63 -24 -107 8 -32 13 -36 45 -39 44 -4 69 21
79 79 7 37 5 45 -16 66 -29 29 -57 29 -84 1z m50 -108 c0 -5 -10 -10 -22 -10
-19 0 -20 2 -8 10 19 13 30 13 30 0z"/>
<path d="M127 726 c-56 -21 -84 -50 -90 -99 -22 -158 106 -278 238 -223 106
45 123 163 38 257 -60 67 -122 88 -186 65z m90 -36 c7 0 28 -14 48 -31 99 -87
84 -207 -29 -239 -39 -11 -49 -10 -83 6 -43 22 -78 69 -94 127 -9 34 -8 42 5
49 9 5 16 15 16 22 0 22 39 64 63 69 12 3 31 3 42 1 11 -2 25 -4 32 -4z"/>
<path d="M3202 430 c0 -14 2 -19 5 -12 2 6 2 18 0 25 -3 6 -5 1 -5 -13z"/>
</g>
</svg>
