<?xml version="1.0" standalone="no"?>
<!DOCTYPE svg PUBLIC "-//W3C//DTD SVG 20010904//EN"
 "http://www.w3.org/TR/2001/REC-SVG-20010904/DTD/svg10.dtd">
<svg version="1.0" xmlns="http://www.w3.org/2000/svg"
 width="300.000000pt" height="287.000000pt" viewBox="0 0 300.000000 287.000000"
 preserveAspectRatio="xMidYMid meet">

<g transform="translate(0.000000,287.000000) scale(0.100000,-0.100000)"
fill="#000000" stroke="none">
<path d="M2985 2810 c3 -5 8 -10 11 -10 2 0 4 5 4 10 0 6 -5 10 -11 10 -5 0
-7 -4 -4 -10z"/>
<path d="M386 2560 c-77 -78 -116 -126 -114 -137 2 -10 7 -17 11 -15 4 1 6 5
6 8 -1 4 53 61 120 128 106 107 128 136 101 136 -4 0 -60 -54 -124 -120z"/>
<path d="M299 2566 c-102 -117 -196 -249 -246 -343 -21 -39 -41 -69 -45 -67
-5 3 -8 -7 -8 -21 0 -20 4 -26 17 -23 10 2 19 12 21 23 6 34 186 295 281 407
50 59 91 110 91 113 0 3 -6 5 -14 5 -8 0 -52 -42 -97 -94z"/>
<path d="M1835 2625 c-155 -32 -307 -88 -440 -163 -81 -45 -90 -54 -76 -81 7
-11 17 -21 24 -21 7 0 65 27 128 59 306 158 584 192 847 102 324 -112 533
-422 534 -796 1 -369 -172 -720 -523 -1060 -386 -374 -877 -577 -1291 -535
-325 33 -547 168 -663 405 -176 357 -61 932 274 1379 166 221 376 400 638 546
129 72 117 78 -22 11 -380 -183 -670 -473 -855 -856 -119 -245 -164 -440 -164
-695 1 -145 4 -177 27 -262 86 -324 311 -521 665 -583 110 -19 315 -19 428 0
360 62 722 256 1023 549 279 272 446 553 517 867 12 52 17 119 17 224 0 129
-4 164 -26 250 -84 320 -301 551 -602 640 -76 23 -114 28 -240 31 -104 2 -172
-1 -220 -11z"/>
<path d="M1916 2461 c15 -15 137 -18 141 -3 4 9 -15 12 -73 12 -47 0 -74 -4
-68 -9z"/>
<path d="M1760 2454 c-80 -27 -125 -64 -57 -49 17 4 48 10 67 14 22 4 36 13
38 24 3 17 -15 21 -48 11z"/>
<path d="M2140 2447 c0 -8 89 -47 106 -47 23 0 16 20 -10 30 -33 12 -96 23
-96 17z"/>
<path d="M1521 2369 c-34 -23 -60 -43 -58 -46 7 -6 137 68 137 78 0 16 -17 10
-79 -32z"/>
<path d="M2329 2377 c17 -22 110 -69 121 -62 16 10 3 23 -50 50 -55 28 -90 34
-71 12z"/>
<path d="M1279 2250 c-33 -30 -48 -49 -38 -50 22 0 131 79 124 91 -12 18 -32
8 -86 -41z"/>
<path d="M2550 2279 c0 -3 18 -44 40 -91 50 -107 72 -199 74 -310 0 -49 5 -88
10 -88 17 0 -2 211 -25 285 -24 78 -98 230 -99 204z"/>
<path d="M2570 2157 c0 -5 4 -17 10 -27 5 -10 21 -55 34 -101 14 -46 25 -76
25 -67 1 21 -45 167 -59 188 -5 8 -10 11 -10 7z"/>
<path d="M1075 2104 c-54 -72 -43 -86 20 -24 60 59 65 70 35 70 -11 0 -34 -19
-55 -46z"/>
<path d="M901 1955 c-35 -30 -76 -93 -67 -102 8 -9 116 97 116 114 0 20 -15
16 -49 -12z"/>
<path d="M1497 1878 c24 -207 103 -420 209 -568 37 -51 62 -62 84 -35 10 13 7
25 -18 73 -53 100 -112 243 -163 392 -26 80 -49 138 -49 129 0 -25 67 -231
105 -321 19 -45 33 -83 31 -85 -5 -5 -70 141 -99 222 -52 146 -89 235 -97 235
-4 0 -6 -19 -3 -42z"/>
<path d="M710 1724 c-29 -41 -50 -77 -47 -80 7 -8 117 125 117 142 0 29 -19
12 -70 -62z"/>
<path d="M2727 1764 c-11 -11 -8 -224 3 -224 16 0 31 78 28 152 -3 65 -13 89
-31 72z"/>
<path d="M1913 1728 c-38 -41 -59 -82 -73 -143 -18 -79 18 -168 81 -200 38
-20 38 -5 -1 17 -73 41 -92 146 -44 248 14 30 37 67 52 83 14 15 24 27 21 27
-3 0 -19 -15 -36 -32z"/>
<path d="M1972 1725 c-32 -23 -79 -95 -91 -140 -14 -56 0 -111 41 -151 45 -44
82 -50 138 -22 137 70 112 328 -32 328 -19 0 -43 -7 -56 -15z m87 -81 c15 -19
21 -41 21 -76 0 -41 -5 -54 -29 -79 -16 -16 -40 -29 -53 -29 -29 0 -74 44 -83
82 -6 22 -3 27 17 30 14 2 28 15 37 33 18 39 41 65 57 65 7 0 22 -12 33 -26z"/>
<path d="M1390 1666 c0 -22 93 -266 134 -351 61 -127 86 -161 109 -152 27 10
20 32 -45 140 -64 106 -178 333 -178 355 0 6 -4 12 -10 12 -5 0 -10 -2 -10 -4z"/>
<path d="M1350 1630 c0 -32 64 -205 109 -293 54 -105 120 -212 127 -204 3 2
-14 33 -36 68 -58 89 -124 228 -165 345 -19 55 -35 92 -35 84z"/>
<path d="M560 1518 c-27 -49 -37 -78 -25 -78 9 0 84 118 78 124 -13 13 -24 4
-53 -46z"/>
<path d="M2695 1398 c-4 -23 -16 -66 -26 -96 -13 -37 -15 -52 -6 -50 16 5 64
104 72 151 5 32 3 37 -14 37 -15 0 -21 -9 -26 -42z"/>
<path d="M2162 1364 c-13 -9 -21 -22 -18 -30 3 -9 -40 -46 -127 -107 -274
-195 -501 -385 -697 -581 -68 -69 -121 -128 -117 -132 7 -7 27 10 228 190 283
254 714 586 760 586 38 0 51 46 21 73 -23 21 -22 21 -50 1z m46 -29 c5 -25
-19 -37 -34 -17 -9 12 -9 21 -2 30 14 16 32 10 36 -13z"/>
<path d="M465 1336 c-9 -20 -18 -58 -20 -84 l-5 -47 14 40 c7 22 21 57 30 77
10 24 12 39 6 43 -6 4 -17 -10 -25 -29z"/>
<path d="M920 1261 c10 -27 33 -80 51 -118 76 -166 72 -176 -10 -23 -28 52
-51 91 -51 85 0 -22 109 -210 120 -207 6 1 9 -2 5 -8 -4 -6 3 -26 15 -45 12
-19 17 -35 12 -35 -6 0 -32 -29 -58 -65 -26 -36 -51 -65 -55 -65 -23 0 -12 23
38 79 30 34 53 64 51 67 -3 2 -27 -23 -54 -55 -27 -33 -52 -60 -56 -60 -10 -1
-112 128 -200 252 -90 128 -86 123 -99 110 -27 -27 198 -351 365 -528 47 -50
57 -56 70 -45 24 19 20 27 -39 92 l-56 60 58 62 c32 33 60 62 63 63 3 1 20
-19 37 -45 40 -57 112 -139 90 -101 -15 25 -15 27 3 32 32 8 23 40 -30 111
-69 90 -197 288 -240 369 -41 78 -58 88 -30 18z"/>
<path d="M880 1275 c0 -5 5 -17 10 -25 5 -8 10 -10 10 -5 0 6 -5 17 -10 25 -5
8 -10 11 -10 5z"/>
<path d="M2113 1197 c-10 -13 -71 -61 -136 -107 -64 -46 -163 -120 -220 -166
-104 -83 -257 -223 -246 -224 3 0 42 30 85 66 105 87 286 224 408 309 85 59
105 68 137 66 34 -1 39 1 45 24 13 51 -39 74 -73 32z m52 -23 c0 -10 -8 -20
-17 -22 -18 -3 -26 27 -11 42 12 11 28 0 28 -20z"/>
<path d="M1272 1185 c-65 -28 -79 -129 -30 -217 25 -44 73 -78 109 -78 36 1
100 33 132 68 24 25 27 33 18 51 -16 29 -47 26 -88 -9 -39 -34 -72 -38 -97
-11 -17 18 -16 20 13 37 28 17 61 67 61 93 0 24 -24 60 -47 70 -30 14 -30 14
-71 -4z m62 -71 c6 -17 2 -29 -22 -57 -18 -20 -32 -7 -32 29 0 38 42 60 54 28z"/>
<path d="M2570 1100 c-17 -33 -26 -60 -20 -60 12 0 70 89 70 108 0 29 -22 8
-50 -48z"/>
<path d="M366 1039 c-20 -99 5 -366 36 -386 7 -4 9 0 5 10 -24 63 -39 189 -35
293 2 63 3 114 2 114 -1 0 -4 -14 -8 -31z"/>
<path d="M625 1040 c13 -23 54 -77 119 -160 63 -79 294 -320 308 -320 4 0 -43
51 -105 113 -62 62 -159 171 -216 242 -111 139 -119 148 -106 125z"/>
<path d="M2440 899 c-78 -94 -66 -108 23 -28 58 52 69 72 42 83 -10 3 -32 -15
-65 -55z"/>
<path d="M393 860 c0 -36 2 -50 4 -32 2 17 2 47 0 65 -2 17 -4 3 -4 -33z"/>
<path d="M2247 732 c-53 -54 -70 -82 -48 -82 16 0 132 112 128 123 -8 24 -25
15 -80 -41z"/>
<path d="M401 766 c-1 -29 28 -133 54 -191 27 -62 86 -155 98 -155 4 0 -6 20
-23 45 -45 65 -87 159 -109 245 -11 41 -20 67 -20 56z"/>
<path d="M2050 566 c-30 -23 -61 -50 -69 -59 -22 -27 5 -21 52 13 80 56 93 68
82 79 -7 7 -28 -3 -65 -33z"/>
<path d="M2555 601 c-31 -13 -114 -90 -130 -122 -36 -69 -5 -124 69 -124 120
0 245 166 176 235 -21 21 -77 26 -115 11z m71 -65 c14 -38 -81 -136 -131 -136
-36 0 -50 24 -34 61 25 63 52 84 108 86 37 2 53 -1 57 -11z"/>
<path d="M1827 409 c-31 -22 -57 -43 -57 -45 0 -10 124 62 128 74 6 21 -11 14
-71 -29z"/>
<path d="M2656 316 c-37 -46 -47 -91 -24 -114 27 -27 116 -3 138 37 16 31 12
86 -8 104 -33 30 -66 21 -106 -27z m14 -62 c0 -8 -5 -12 -10 -9 -6 4 -8 11 -5
16 9 14 15 11 15 -7z"/>
<path d="M1625 324 c-22 -13 -61 -31 -87 -41 -46 -16 -63 -33 -34 -33 25 0
140 39 164 55 49 35 13 51 -43 19z"/>
<path d="M725 286 c42 -36 112 -63 127 -48 15 15 15 15 -57 39 -33 11 -69 23
-80 27 -14 5 -11 0 10 -18z"/>
<path d="M1303 247 c-29 -5 -53 -14 -53 -18 0 -15 126 -11 139 4 22 28 2 31
-86 14z"/>
<path d="M1018 233 c-57 -4 -74 -15 -42 -27 31 -12 151 -6 163 7 15 19 4 27
-33 25 -17 -1 -57 -3 -88 -5z"/>
</g>
</svg>
