<?xml version="1.0" standalone="no"?>
<!DOCTYPE svg PUBLIC "-//W3C//DTD SVG 20010904//EN"
 "http://www.w3.org/TR/2001/REC-SVG-20010904/DTD/svg10.dtd">
<svg version="1.0" xmlns="http://www.w3.org/2000/svg"
 width="304.000000pt" height="286.000000pt" viewBox="0 0 304.000000 286.000000"
 preserveAspectRatio="xMidYMid meet">

<g transform="translate(0.000000,286.000000) scale(0.100000,-0.100000)"
fill="#000000" stroke="none">
<path d="M2602 2813 c-40 -62 -72 -135 -65 -146 3 -5 20 18 38 51 17 33 46 79
64 101 29 37 31 41 13 41 -13 0 -31 -17 -50 -47z"/>
<path d="M2668 2787 c-57 -89 -109 -192 -101 -201 3 -3 26 28 49 70 24 42 64
105 89 140 34 50 40 64 27 64 -10 0 -36 -29 -64 -73z"/>
<path d="M935 2646 c-325 -63 -545 -310 -611 -686 -47 -271 31 -554 200 -724
39 -39 102 -89 139 -110 37 -22 66 -44 63 -50 -58 -130 -116 -289 -111 -306 4
-13 23 -25 58 -35 72 -21 266 -61 369 -75 l87 -12 -202 -202 c-253 -253 -397
-409 -397 -430 0 -10 8 -16 23 -16 28 0 202 99 431 245 93 59 284 178 425 265
303 186 397 246 404 257 15 23 -34 44 -238 101 -121 34 -267 74 -325 89 l-105
28 60 5 c36 3 75 14 97 27 l37 22 69 -35 c214 -107 512 -78 777 75 118 68 249
202 302 308 57 113 77 209 71 337 -12 260 -172 481 -415 572 -71 27 -92 26
-46 -2 168 -102 249 -172 317 -272 75 -109 91 -165 91 -312 -1 -143 -18 -206
-85 -321 -181 -307 -673 -476 -965 -332 -27 14 -65 36 -83 50 -45 34 -77 28
-76 -13 2 -43 -34 -62 -143 -75 -78 -9 -115 -21 -102 -33 6 -6 293 -97 494
-156 99 -29 183 -56 187 -59 7 -6 -261 -178 -717 -459 -137 -85 -277 -173
-310 -195 -52 -36 -36 -16 131 159 193 201 342 364 357 390 10 17 -28 34 -76
34 -44 1 -445 65 -453 72 -3 4 14 60 39 125 24 65 48 132 51 148 4 17 14 38
23 47 21 23 9 51 -30 70 -59 28 -158 110 -207 171 -65 80 -115 185 -141 294
-27 114 -23 308 10 421 98 337 429 607 690 562 72 -13 158 -52 183 -83 l16
-21 59 27 c159 76 316 76 472 1 36 -18 86 -57 140 -111 46 -46 85 -82 87 -80
8 8 -70 108 -120 155 -114 104 -279 156 -427 134 -44 -6 -111 -25 -151 -42
l-72 -30 -26 25 c-61 58 -202 84 -325 61z"/>
<path d="M1869 2421 c17 -16 38 -46 47 -66 16 -39 31 -42 19 -5 -8 26 -73 100
-87 100 -6 0 4 -13 21 -29z"/>
<path d="M1845 2400 c16 -16 31 -28 33 -25 7 7 -39 55 -52 55 -5 0 3 -13 19
-30z"/>
<path d="M620 2149 c-44 -82 -60 -148 -60 -245 0 -81 29 -206 50 -219 13 -8
13 -8 -12 60 -17 48 -22 82 -22 165 0 112 19 180 71 263 13 20 19 37 15 37 -5
0 -24 -28 -42 -61z"/>
<path d="M1000 2181 c28 -5 35 -9 20 -9 -23 -2 -26 -7 -26 -39 -1 -21 -5 -128
-10 -238 l-9 -200 -5 230 c-5 208 -6 194 -7 -150 -3 -418 -2 -419 57 -421 17
-1 49 -3 73 -4 l42 -3 -50 -7 c-50 -7 -49 -7 20 -8 39 -1 77 3 85 8 12 8 11
10 -7 10 -23 0 -23 2 -23 133 l0 134 99 0 99 -1 8 -120 9 -121 65 -11 65 -11
-60 -5 -60 -4 63 -2 c83 -3 102 8 102 58 0 21 4 40 9 42 24 9 39 423 21 593
l-7 70 -3 -75 -3 -75 -7 97 c-3 54 -9 101 -13 104 -11 12 -89 22 -127 17 l-37
-5 -7 -76 c-3 -41 -6 -126 -6 -188 0 -62 -3 -115 -7 -117 -5 -3 -48 -6 -98 -8
l-90 -4 -1 45 -2 45 8 -40 c4 -25 8 30 8 145 1 102 -2 191 -7 198 -5 9 -42 14
-117 17 -73 2 -94 1 -64 -4z m501 -41 l36 -10 -3 -248 c-3 -136 -7 -302 -10
-368 l-6 -122 -56 -5 c-32 -2 -58 -4 -59 -3 0 0 -6 62 -13 136 -7 74 -14 137
-16 139 -6 7 -225 -16 -232 -24 -4 -4 -7 -65 -6 -136 1 -109 -1 -129 -13 -124
-8 3 -29 5 -47 5 l-33 0 -6 298 c-4 163 -10 334 -13 380 l-7 82 64 0 64 0 0
-187 0 -188 121 -3 121 -3 7 63 c3 35 9 123 13 196 l6 132 26 0 c14 0 42 -5
62 -10z m-324 -37 c-3 -10 -5 -4 -5 12 0 17 2 24 5 18 2 -7 2 -21 0 -30z m398
-411 c-4 -79 -9 -141 -12 -138 -3 2 -1 87 4 188 4 101 10 163 11 138 2 -25 1
-109 -3 -188z"/>
<path d="M1721 2166 c2 -2 42 -6 89 -9 48 -3 76 -1 65 3 -19 8 -163 14 -154 6z"/>
<path d="M1561 2144 c0 -11 3 -14 6 -6 3 7 2 16 -1 19 -3 4 -6 -2 -5 -13z"/>
<path d="M1728 2145 c-3 -3 -3 -26 0 -50 2 -24 1 -83 -4 -132 l-9 -88 -6 130
c-4 75 -5 25 -3 -120 2 -137 9 -304 15 -370 6 -66 11 -129 12 -140 2 -28 15
-35 77 -36 l55 -1 -45 -13 c-55 -16 -36 -19 24 -4 l43 11 7 156 c10 242 15
546 7 427 -5 -62 -8 -81 -9 -49 -6 148 -16 234 -26 224 -6 -6 -12 -137 -14
-365 l-5 -355 -36 0 -37 0 -12 343 c-7 188 -16 357 -19 376 l-6 33 62 -7 c50
-6 61 -4 61 8 0 20 -114 39 -132 22z"/>
<path d="M1892 2095 c0 -16 2 -22 5 -12 2 9 2 23 0 30 -3 6 -5 -1 -5 -18z"/>
<path d="M604 2014 c-16 -107 10 -238 62 -317 38 -58 38 -39 0 38 -41 81 -61
182 -51 265 8 70 -1 81 -11 14z"/>
<path d="M1170 1600 c0 -5 7 -7 15 -4 8 4 15 8 15 10 0 2 -7 4 -15 4 -8 0 -15
-4 -15 -10z"/>
<path d="M2329 1478 c-13 -29 -53 -83 -88 -120 -71 -76 -74 -90 -5 -26 52 48
95 106 117 161 24 57 4 44 -24 -15z"/>
<path d="M1181 1460 c0 -30 3 -61 8 -68 4 -7 6 13 4 45 -6 79 -11 89 -12 23z"/>
<path d="M2320 1380 c-28 -39 -80 -94 -114 -122 -80 -66 -88 -75 -48 -52 46
26 151 129 191 188 52 75 30 64 -29 -14z"/>
<path d="M1748 1323 c7 -3 16 -2 19 1 4 3 -2 6 -13 5 -11 0 -14 -3 -6 -6z"/>
<path d="M931 1134 c19 -23 60 -37 73 -24 7 7 4 10 -10 10 -11 0 -29 7 -40 15
-26 19 -40 19 -23 -1z"/>
<path d="M902 1104 c10 -10 20 -16 22 -13 3 3 -5 11 -17 18 -21 13 -21 12 -5
-5z"/>
<path d="M2382 485 c-26 -19 -52 -66 -52 -95 0 -15 -6 -20 -28 -20 -31 0 -65
-30 -76 -66 -12 -39 22 -102 69 -130 51 -29 143 -46 200 -35 38 7 37 7 -30 13
-90 8 -147 31 -185 74 -36 42 -38 64 -6 101 21 24 27 26 43 15 48 -33 57 -29
43 17 -34 121 126 153 195 39 16 -27 20 -51 20 -130 0 -120 19 -128 23 -10 4
102 -10 153 -52 199 -28 31 -40 37 -87 40 -39 3 -60 0 -77 -12z"/>
<path d="M2700 189 c0 -19 4 -40 9 -48 13 -20 58 -6 66 20 8 25 -9 45 -47 54
-26 7 -28 5 -28 -26z m50 -14 c0 -8 -4 -15 -10 -15 -5 0 -10 7 -10 15 0 8 5
15 10 15 6 0 10 -7 10 -15z"/>
<path d="M2434 15 c-17 -13 -13 -14 51 -14 64 0 68 1 51 14 -11 8 -34 15 -51
15 -17 0 -40 -7 -51 -15z"/>
</g>
</svg>
