<?xml version="1.0" standalone="no"?>
<!DOCTYPE svg PUBLIC "-//W3C//DTD SVG 20010904//EN"
 "http://www.w3.org/TR/2001/REC-SVG-20010904/DTD/svg10.dtd">
<svg version="1.0" xmlns="http://www.w3.org/2000/svg"
 width="304.000000pt" height="287.000000pt" viewBox="0 0 304.000000 287.000000"
 preserveAspectRatio="xMidYMid meet">

<g transform="translate(0.000000,287.000000) scale(0.100000,-0.100000)"
fill="#000000" stroke="none">
<path d="M1755 2719 c-116 -11 -248 -49 -346 -100 l-77 -40 -39 25 c-145 96
-332 87 -525 -26 -100 -59 -285 -244 -367 -367 -112 -170 -186 -345 -216 -515
-19 -112 -19 -187 1 -283 28 -135 81 -231 185 -332 l58 -57 -35 -69 c-85 -172
-39 -393 115 -546 200 -199 516 -200 667 -2 l32 42 17 -46 c37 -96 139 -174
294 -224 180 -59 393 -51 581 22 158 61 333 194 442 339 64 83 141 242 168
345 30 112 38 310 16 431 -47 269 -204 520 -416 664 -19 13 -37 25 -39 26 -2
2 7 17 19 35 67 93 13 258 -104 320 -25 13 -46 27 -46 30 0 10 87 45 160 65
41 11 102 18 165 18 90 1 106 -2 157 -27 32 -16 67 -40 77 -54 19 -23 22 -24
36 -9 15 15 11 22 -47 82 -35 36 -92 83 -128 105 -177 105 -546 172 -805 148z
m369 -64 c60 -8 147 -24 195 -36 81 -20 243 -89 285 -121 17 -14 12 -14 -45
-2 -145 30 -310 9 -445 -57 -57 -28 -65 -35 -62 -58 2 -20 11 -27 48 -36 88
-23 136 -60 165 -127 27 -67 13 -162 -31 -203 -13 -12 -24 -29 -24 -38 0 -9
26 -36 58 -60 71 -55 188 -176 230 -239 52 -75 120 -226 143 -313 31 -121 36
-287 11 -405 -75 -361 -369 -661 -722 -735 -232 -49 -506 16 -627 149 -49 53
-79 120 -67 149 6 17 -23 37 -44 30 -7 -3 -24 -27 -37 -54 -49 -95 -126 -151
-234 -168 -270 -44 -541 212 -518 490 7 78 39 175 67 201 11 10 20 21 20 25 0
3 -31 35 -68 72 -77 75 -130 156 -163 251 -21 57 -24 83 -23 205 0 123 4 151
28 230 65 214 201 442 356 595 103 102 170 147 278 188 135 51 370 27 427 -44
l20 -26 75 40 c190 102 424 134 704 97z"/>
<path d="M1441 2246 c-50 -73 -73 -142 -76 -236 l-4 -85 9 88 c7 70 16 103 44
160 19 40 43 82 52 95 9 12 14 22 11 22 -3 0 -20 -20 -36 -44z"/>
<path d="M672 2246 c-44 -50 -85 -113 -119 -181 -36 -71 -67 -164 -59 -172 3
-4 6 -1 6 6 0 25 60 162 96 219 20 31 54 79 76 105 46 55 46 75 0 23z"/>
<path d="M576 2213 c-50 -68 -120 -205 -150 -293 -28 -85 -57 -230 -46 -230 4
0 10 19 13 43 18 131 96 323 182 451 53 79 54 102 1 29z"/>
<path d="M1384 2228 l-19 -23 23 19 c21 18 27 26 19 26 -2 0 -12 -10 -23 -22z"/>
<path d="M2127 2193 c12 -26 23 -57 23 -70 0 -13 4 -23 9 -23 18 0 -25 120
-47 134 -5 3 2 -16 15 -41z"/>
<path d="M1470 2110 c-13 -80 -3 -189 31 -324 11 -43 18 -93 15 -110 -5 -23
-4 -26 3 -11 10 23 8 30 65 -200 68 -271 196 -689 218 -710 7 -7 9 -1 4 20
-12 57 -18 250 -9 305 l9 55 49 0 c74 -1 189 -42 269 -96 74 -50 141 -109 149
-131 2 -7 7 -10 11 -7 14 13 -64 107 -133 160 -73 56 -214 145 -241 152 -8 2
-12 2 -7 0 4 -3 7 -12 8 -21 0 -11 3 -12 6 -5 3 10 10 10 26 1 12 -6 24 -14
27 -17 3 -3 17 -12 33 -20 26 -14 38 -41 17 -41 -5 0 -10 5 -10 11 0 5 -4 7
-10 4 -5 -3 -10 -1 -10 5 0 6 -4 9 -9 6 -5 -4 -12 0 -14 6 -4 9 -6 8 -7 -2 0
-8 -7 -1 -15 15 -10 20 -13 22 -9 7 6 -23 -13 -28 -28 -7 -5 6 -8 5 -8 -3 0
-9 -5 -10 -17 -3 -10 5 -22 9 -28 9 -5 1 -13 11 -17 24 -6 22 -6 21 -7 -4 -1
-16 -5 -28 -11 -28 -13 0 -13 10 1 48 9 26 15 30 37 26 25 -4 25 -3 7 7 -11 7
-21 13 -23 15 -6 5 79 199 104 237 18 28 30 36 43 32 14 -4 20 1 25 21 4 14 5
29 1 32 -3 3 -5 0 -5 -6 0 -7 -15 -18 -34 -26 -94 -39 -196 -322 -200 -553 0
-50 -4 -89 -7 -85 -27 28 -219 724 -232 839 -2 15 -7 36 -11 46 -5 10 -3 24 5
34 10 12 10 15 2 9 -7 -4 -13 -4 -14 1 0 4 -2 15 -4 23 -1 8 -6 31 -9 50 -4
19 -9 46 -12 60 -15 73 -12 98 12 121 22 21 30 17 25 -13 0 -5 4 -8 11 -8 7 0
-4 -17 -23 -37 -18 -21 -25 -30 -14 -22 11 9 25 19 31 22 17 10 13 -26 -5 -46
-9 -11 -16 -32 -17 -47 -1 -28 -1 -28 22 -12 13 9 24 21 24 26 0 5 -7 3 -15
-4 -13 -11 -15 -10 -12 7 1 11 10 27 19 36 18 19 15 71 -8 125 -15 38 -42 72
-55 72 -4 0 -13 -32 -19 -70z m27 5 c0 -8 -4 -12 -9 -9 -4 3 -8 9 -8 15 0 5 4
9 8 9 5 0 9 -7 9 -15z m550 -1007 c-3 -8 -6 -5 -6 6 -1 11 2 17 5 13 3 -3 4
-12 1 -19z m79 -45 c-6 -6 -46 20 -46 30 0 4 11 0 25 -9 14 -9 24 -19 21 -21z"/>
<path d="M1509 2064 c-7 -9 -14 -23 -15 -31 -2 -12 0 -12 15 1 10 9 18 23 18
31 0 19 -1 19 -18 -1z"/>
<path d="M1514 1988 l-19 -23 23 19 c21 18 27 26 19 26 -2 0 -12 -10 -23 -22z"/>
<path d="M1534 1888 c-10 -12 -13 -18 -6 -14 6 4 12 3 12 -1 0 -5 -6 -15 -12
-23 -11 -12 -10 -12 5 0 10 7 16 19 13 26 -3 7 0 15 7 17 7 2 9 7 6 11 -3 3
-14 -4 -25 -16z"/>
<path d="M890 1884 c0 -9 -9 -27 -20 -41 -36 -46 -51 -119 -51 -247 0 -65 3
-121 6 -124 3 -3 5 49 5 115 0 162 32 273 80 273 13 0 20 7 20 20 0 13 -7 20
-20 20 -12 0 -20 -7 -20 -16z m30 -4 c0 -5 -4 -10 -10 -10 -5 0 -10 5 -10 10
0 6 5 10 10 10 6 0 10 -4 10 -10z"/>
<path d="M1022 1870 c-12 -16 -22 -31 -22 -34 0 -11 32 2 45 20 8 10 15 14 15
8 0 -6 -7 -17 -15 -24 -8 -7 -15 -18 -15 -24 0 -6 10 2 23 17 15 20 27 26 40
21 15 -5 15 -9 5 -23 -11 -14 -11 -14 3 -4 26 21 31 1 7 -26 -22 -25 -22 -25
-1 -7 41 34 67 -18 27 -55 -24 -22 -24 -22 -38 -3 -8 10 -12 22 -9 27 2 4 1 7
-4 6 -22 -4 -24 3 -7 24 19 22 19 22 -2 5 -29 -25 -41 -22 -18 5 19 22 19 22
-2 5 -28 -24 -47 -23 -39 1 10 32 -23 19 -45 -17 -42 -68 -63 -152 -62 -252 0
-52 4 -105 8 -117 6 -14 9 26 9 110 1 113 4 140 23 188 12 30 28 62 35 70 6 8
11 12 10 10 -1 -2 17 -16 41 -31 30 -19 51 -44 70 -81 14 -29 26 -59 26 -65 0
-25 17 -23 41 4 l24 27 -26 -23 c-26 -23 -26 -23 -32 -3 -6 23 9 39 15 19 3
-8 10 -3 18 12 13 24 12 24 -5 10 -20 -17 -24 -16 -44 12 -12 18 -11 23 12 46
34 34 48 20 16 -15 -17 -20 -18 -23 -3 -10 29 24 41 21 18 -5 -10 -13 -12 -17
-4 -10 14 12 39 18 27 6 -3 -4 0 -23 9 -42 14 -35 14 -37 -16 -73 -16 -21 -30
-46 -30 -55 0 -14 7 -11 34 15 42 40 42 39 58 -119 8 -89 8 -142 0 -219 -11
-91 -16 -107 -44 -142 -17 -22 -34 -35 -38 -29 -3 5 -17 -5 -30 -22 l-23 -33
28 25 c35 31 30 18 -15 -42 -35 -47 -50 -54 -58 -28 -3 7 0 10 5 7 6 -4 19 3
29 15 11 12 13 18 7 14 -8 -4 -13 -2 -13 5 0 6 -10 0 -21 -15 -12 -15 -24 -25
-27 -22 -3 3 3 16 14 28 17 21 16 21 -9 -1 -30 -27 -36 -19 -9 13 17 21 17 21
-6 2 -22 -19 -22 -19 -47 4 -26 24 -28 44 -7 46 24 3 26 4 14 16 -8 8 -16 5
-31 -13 -25 -30 -27 -18 -4 19 l17 27 -22 -19 c-21 -18 -22 -18 -33 10 -9 25
-35 134 -67 284 -6 25 -10 37 -11 28 -2 -37 51 -283 76 -349 52 -141 144 -201
223 -147 19 13 45 41 57 63 90 160 79 633 -18 828 -25 51 -97 127 -119 127 -9
0 -26 -13 -38 -30z m198 -278 c0 -5 -13 -21 -30 -37 -35 -34 -40 -25 -7 15 22
29 37 37 37 22z m-7 -549 c-3 -10 -13 -26 -20 -35 -8 -9 -13 -21 -9 -26 3 -4
-4 -23 -14 -40 -14 -23 -27 -32 -45 -32 -31 0 -30 0 38 88 51 65 60 73 50 45z"/>
<path d="M1159 963 c-13 -16 -12 -17 4 -4 9 7 17 15 17 17 0 8 -8 3 -21 -13z"/>
<path d="M2087 1750 c92 -56 113 -202 47 -331 -25 -50 -44 -69 -45 -47 0 7 -6
-3 -13 -22 -7 -19 -11 -37 -9 -39 5 -7 78 48 91 69 16 27 5 26 -20 -2 -23 -27
-21 -22 17 57 38 78 42 187 9 250 -20 38 -74 85 -98 85 -6 0 3 -9 21 -20z"/>
<path d="M1874 1648 l-19 -23 23 19 c21 18 27 26 19 26 -2 0 -12 -10 -23 -22z"/>
<path d="M1912 1593 c-48 -48 -90 -102 -111 -141 -18 -35 -31 -65 -29 -67 2
-2 18 24 36 58 39 77 112 161 171 199 26 16 38 28 28 28 -10 0 -53 -35 -95
-77z"/>
<path d="M2071 1641 c22 -23 29 -39 30 -73 2 -32 3 -36 6 -14 3 15 2 39 -1 52
-7 26 -40 64 -55 64 -5 0 4 -13 20 -29z"/>
<path d="M1496 1609 c-8 -42 0 -50 9 -9 4 17 5 34 2 36 -2 3 -7 -10 -11 -27z"/>
<path d="M1166 1604 c-15 -14 -26 -28 -22 -31 3 -4 7 -4 9 -2 1 2 13 16 26 32
30 34 25 34 -13 1z"/>
<path d="M1520 1532 c-20 -94 -69 -230 -120 -339 -27 -57 -47 -103 -44 -103 6
0 89 169 118 242 34 87 77 246 67 253 -4 2 -14 -21 -21 -53z"/>
<path d="M1481 1544 c0 -11 3 -14 6 -6 3 7 2 16 -1 19 -3 4 -6 -2 -5 -13z"/>
<path d="M1189 1523 c-13 -16 -12 -17 4 -4 9 7 17 15 17 17 0 8 -8 3 -21 -13z"/>
<path d="M2077 1504 c7 -19 -43 -29 -65 -13 -15 13 -16 12 -3 -3 18 -23 54
-23 74 0 21 23 21 29 3 29 -8 0 -12 -6 -9 -13z"/>
<path d="M1162 1450 c0 -19 2 -27 5 -17 2 9 2 25 0 35 -3 9 -5 1 -5 -18z"/>
<path d="M1746 1463 c-6 -14 -5 -15 5 -6 7 7 10 15 7 18 -3 3 -9 -2 -12 -12z"/>
<path d="M832 1430 c0 -19 2 -27 5 -17 2 9 2 25 0 35 -3 9 -5 1 -5 -18z"/>
<path d="M1651 1424 c0 -11 3 -14 6 -6 3 7 2 16 -1 19 -3 4 -6 -2 -5 -13z"/>
<path d="M1174 1275 c0 -71 1 -99 3 -62 2 37 2 96 0 130 -2 34 -3 4 -3 -68z"/>
<path d="M1745 1310 c-4 -17 -5 -34 -2 -36 2 -3 7 10 11 27 3 18 4 34 2 36 -2
3 -7 -10 -11 -27z"/>
<path d="M931 1285 c-1 -46 26 -148 54 -206 24 -50 24 -53 7 -73 -17 -21 -17
-21 4 -3 14 11 28 15 40 10 15 -5 12 1 -10 28 -38 45 -55 86 -77 189 -9 47
-18 72 -18 55z"/>
<path d="M1701 1275 c1 -19 18 -51 18 -35 0 8 -4 22 -9 30 -5 8 -9 11 -9 5z"/>
<path d="M1851 1194 c0 -11 3 -14 6 -6 3 7 2 16 -1 19 -3 4 -6 -2 -5 -13z"/>
<path d="M1891 1184 c0 -11 3 -14 6 -6 3 7 2 16 -1 19 -3 4 -6 -2 -5 -13z"/>
<path d="M1162 1100 c0 -14 2 -19 5 -12 2 6 2 18 0 25 -3 6 -5 1 -5 -13z"/>
<path d="M1330 1060 c-6 -11 -8 -20 -6 -20 3 0 10 9 16 20 6 11 8 20 6 20 -3
0 -10 -9 -16 -20z"/>
<path d="M2465 950 c-41 -126 -112 -255 -189 -340 l-31 -35 34 30 c43 39 111
135 148 210 36 73 66 160 60 178 -2 6 -12 -13 -22 -43z"/>
<path d="M860 935 c0 -5 9 -23 20 -40 26 -39 26 -25 0 17 -11 18 -20 29 -20
23z"/>
<path d="M865 870 c10 -11 20 -20 23 -20 3 0 -3 9 -13 20 -10 11 -20 20 -23
20 -3 0 3 -9 13 -20z"/>
<path d="M1698 785 c11 -21 73 -82 107 -104 11 -8 1 3 -22 23 -24 21 -54 52
-69 69 -14 18 -21 23 -16 12z"/>
<path d="M552 740 c0 -14 2 -19 5 -12 2 6 2 18 0 25 -3 6 -5 1 -5 -13z"/>
<path d="M2398 692 c-63 -115 -156 -217 -268 -294 -14 -9 -20 -17 -15 -17 23
-1 151 107 206 173 59 71 123 179 117 196 -2 5 -20 -21 -40 -58z"/>
<path d="M1688 735 c18 -32 50 -70 55 -65 3 3 -11 23 -30 45 -20 22 -31 31
-25 20z"/>
<path d="M511 728 c-1 -29 49 -152 74 -183 21 -26 20 -22 -7 29 -17 32 -39 84
-49 115 -10 31 -18 48 -18 39z"/>
<path d="M561 695 c-1 -37 46 -120 92 -162 26 -24 52 -43 58 -43 6 0 -12 21
-40 46 -49 44 -84 98 -102 154 -6 20 -7 21 -8 5z"/>
</g>
</svg>
