<?xml version="1.0" standalone="no"?>
<!DOCTYPE svg PUBLIC "-//W3C//DTD SVG 20010904//EN"
 "http://www.w3.org/TR/2001/REC-SVG-20010904/DTD/svg10.dtd">
<svg version="1.0" xmlns="http://www.w3.org/2000/svg"
 width="301.000000pt" height="281.000000pt" viewBox="0 0 301.000000 281.000000"
 preserveAspectRatio="xMidYMid meet">

<g transform="translate(0.000000,281.000000) scale(0.100000,-0.100000)"
fill="#000000" stroke="none">
<path d="M1475 2665 c-228 -50 -396 -202 -456 -410 -9 -33 -21 -59 -25 -58 -5
1 -29 10 -54 19 -71 25 -191 16 -258 -21 -52 -28 -112 -85 -112 -106 0 -6 21
8 46 30 94 82 239 105 345 53 58 -28 69 -28 69 2 0 13 19 61 42 107 48 97 160
217 248 266 103 58 173 76 295 76 94 0 122 -4 190 -27 239 -82 388 -257 441
-516 21 -106 15 -271 -15 -377 -24 -82 -24 -83 -12 -101 7 -11 17 -8 50 13 52
35 125 44 169 21 43 -22 62 -63 62 -133 l0 -58 68 0 c59 0 76 -4 118 -30 129
-80 194 -296 150 -501 -24 -108 -100 -262 -173 -349 -261 -310 -810 -491
-1249 -410 -217 40 -419 144 -686 353 -64 51 -122 92 -128 92 -6 0 -23 -9 -39
-21 -15 -11 -46 -23 -68 -26 -130 -17 -237 124 -203 266 17 73 67 145 103 149
53 6 44 54 -12 65 -64 13 -121 91 -121 164 0 45 43 135 86 180 37 40 47 45 73
40 39 -8 67 20 37 37 -63 37 -103 77 -131 131 -27 53 -30 68 -30 149 1 78 5
100 29 153 42 93 138 173 206 173 13 0 19 4 14 11 -11 18 -98 5 -134 -21 -65
-46 -137 -188 -155 -306 -8 -49 8 -140 32 -191 9 -20 34 -54 55 -76 43 -46 44
-47 22 -47 -8 0 -37 -22 -64 -50 -55 -56 -90 -136 -90 -203 0 -63 43 -143 95
-176 l42 -27 -24 -29 c-105 -128 -107 -286 -5 -385 70 -68 153 -86 242 -55 25
9 47 12 54 7 6 -5 46 -36 88 -70 333 -262 610 -372 936 -372 598 0 1122 332
1244 789 24 91 28 240 9 321 -47 192 -150 300 -287 300 l-59 0 -1 48 c-1 118
-119 194 -229 148 -19 -8 -35 -13 -35 -11 0 2 8 32 17 67 24 88 23 298 -1 393
-10 39 -40 116 -67 173 -42 86 -62 115 -128 181 -132 132 -301 201 -486 200
-44 0 -107 -7 -140 -14z"/>
<path d="M1753 2494 c-4 -10 -13 -14 -26 -10 -31 8 -57 -11 -57 -43 0 -39 37
-71 83 -71 31 0 41 5 57 33 24 39 25 70 4 91 -20 21 -53 20 -61 0z m-33 -18
c0 -2 -7 -7 -16 -10 -8 -3 -12 -2 -9 4 6 10 25 14 25 6z"/>
<path d="M2770 2395 c0 -34 202 -240 226 -231 9 3 14 20 14 43 -1 37 -1 38
-14 14 -14 -25 -14 -24 -120 79 -58 57 -106 100 -106 95z"/>
<path d="M2020 2287 c16 -39 34 -101 40 -137 7 -36 14 -76 17 -89 2 -13 6 -21
9 -18 16 16 -61 297 -86 312 -4 3 5 -28 20 -68z"/>
<path d="M2082 2243 c22 -74 30 -263 15 -358 -6 -41 -5 -46 4 -30 7 11 14 73
17 145 4 106 1 139 -17 210 -11 46 -25 88 -30 93 -5 5 0 -22 11 -60z"/>
<path d="M1270 2200 c-11 -11 -20 -28 -20 -38 0 -9 -9 -23 -20 -30 -28 -17
-27 -72 3 -99 32 -29 79 -51 125 -59 l40 -6 7 56 c10 78 -2 143 -30 172 -30
30 -78 31 -105 4z m99 -26 c17 -22 21 -41 21 -106 0 -61 -3 -80 -15 -84 -23
-9 -128 47 -145 78 -13 24 -13 29 4 47 18 20 20 20 38 5 16 -15 18 -16 18 -1
0 9 -4 19 -10 22 -5 3 -10 14 -10 24 0 46 66 57 99 15z"/>
<path d="M1543 2057 c-4 -8 -17 -16 -28 -18 -13 -3 -21 -14 -23 -32 -3 -21 2
-29 25 -39 15 -7 31 -17 35 -22 4 -6 15 -3 28 9 17 15 20 28 18 64 -3 38 -7
47 -25 49 -12 2 -25 -3 -30 -11z m41 -16 c3 -5 3 -23 0 -40 -5 -23 -12 -31
-28 -31 -33 0 -61 24 -52 45 5 14 9 16 18 7 18 -18 28 -15 28 8 0 20 24 28 34
11z"/>
<path d="M641 1929 c-13 -5 -21 -12 -18 -15 3 -3 13 -2 23 4 23 13 52 4 59
-20 13 -38 -34 -63 -65 -35 -12 10 -12 9 -1 -5 17 -23 44 -23 64 0 23 25 21
48 -5 66 -25 18 -25 18 -57 5z"/>
<path d="M765 1880 c-11 -17 5 -32 21 -19 8 6 14 15 14 20 0 12 -27 11 -35 -1z
m25 -4 c0 -3 -4 -8 -10 -11 -5 -3 -10 -1 -10 4 0 6 5 11 10 11 6 0 10 -2 10
-4z"/>
<path d="M1853 1568 c7 -236 11 -271 36 -266 11 2 17 16 19 43 5 69 8 70 65
20 65 -59 93 -73 110 -56 10 10 5 18 -22 40 -19 14 -50 40 -69 57 l-35 31 49
33 c77 52 96 71 83 86 -14 17 -45 2 -123 -61 -31 -26 -59 -46 -61 -44 -1 2 -8
63 -14 134 -15 166 -19 195 -33 195 -7 0 -9 -63 -5 -212z"/>
<path d="M824 1759 c-17 -5 -37 -16 -44 -24 -10 -12 -8 -16 15 -25 14 -5 42
-10 61 -10 l36 0 -9 -112 c-4 -62 -8 -151 -8 -198 l0 -85 30 0 30 0 0 90 c0
50 -4 138 -9 197 l-8 107 63 3 c59 3 64 5 67 27 2 13 -2 28 -10 32 -17 11
-174 10 -214 -2z"/>
<path d="M1424 1715 c-8 -21 3 -45 20 -45 18 0 40 36 31 50 -9 15 -45 12 -51
-5z"/>
<path d="M416 1613 c7 -30 34 -66 34 -46 0 7 -4 15 -10 18 -5 3 -10 15 -10 25
0 10 -5 22 -10 25 -7 4 -9 -3 -4 -22z"/>
<path d="M1016 1573 c-3 -21 -6 -84 -6 -141 0 -83 3 -104 15 -109 22 -8 24 -4
31 65 6 51 10 62 25 62 32 0 50 -39 43 -93 -5 -35 -3 -51 6 -57 23 -14 39 1
46 45 13 90 -20 145 -86 145 -39 0 -40 1 -40 38 0 44 -9 82 -20 82 -4 0 -10
-17 -14 -37z"/>
<path d="M1333 1518 c-42 -11 -87 -70 -87 -113 0 -75 77 -123 152 -93 36 14
40 14 61 -3 18 -15 27 -16 43 -8 24 13 19 33 -10 37 -19 3 -22 10 -22 55 0 34
-7 63 -20 85 -11 17 -21 32 -22 32 -2 0 -17 4 -33 8 -17 5 -44 5 -62 0z m65
-54 c27 -18 30 -69 5 -96 -16 -18 -68 -24 -89 -10 -6 4 -17 18 -24 31 -12 23
-10 27 24 58 40 37 52 40 84 17z"/>
<path d="M1582 1423 c2 -79 6 -98 18 -98 10 0 17 14 20 47 10 83 80 128 115
75 13 -20 13 -33 4 -81 -9 -43 -9 -60 0 -69 23 -23 45 18 49 91 4 61 1 72 -19
95 -35 40 -78 45 -116 13 -38 -32 -39 -32 -47 -1 -4 14 -11 25 -17 25 -6 0 -9
-36 -7 -97z"/>
<path d="M331 1175 c-1 -36 18 -77 39 -83 12 -4 11 -1 -2 15 -10 10 -22 37
-27 59 -8 36 -9 36 -10 9z"/>
<path d="M391 1165 c-2 -30 27 -65 52 -64 21 0 21 0 2 9 -25 10 -41 28 -48 55
-5 20 -5 20 -6 0z"/>
<path d="M2378 1155 c-15 -34 5 -57 46 -53 24 2 32 9 34 26 8 51 -58 74 -80
27z"/>
<path d="M1465 1163 c-31 -8 -52 -31 -89 -99 -44 -80 -93 -147 -99 -137 -3 5
-4 22 -1 38 2 17 6 59 10 93 6 63 6 64 -17 60 -20 -3 -25 -10 -29 -50 -10 -82
-78 -127 -114 -76 -9 13 -16 43 -16 69 0 28 -6 51 -14 58 -18 15 -23 7 -31
-60 -14 -110 58 -167 158 -124 14 6 17 2 17 -29 0 -26 -10 -49 -36 -83 -20
-26 -40 -58 -45 -72 -22 -56 26 -129 76 -117 35 9 45 41 45 139 0 79 1 83 42
142 23 33 43 62 45 65 3 3 9 -3 14 -13 14 -25 62 -47 102 -47 41 0 98 35 149
93 l37 42 1 -47 c0 -39 4 -50 25 -64 34 -22 71 -11 112 34 18 20 33 31 33 25
0 -18 50 -73 66 -73 22 0 16 27 -12 55 -25 25 -26 31 -21 101 5 69 4 74 -14
74 -11 0 -21 -6 -23 -12 -2 -7 -9 -32 -15 -54 -6 -23 -28 -61 -50 -85 -35 -39
-40 -42 -56 -29 -15 12 -17 27 -13 97 6 104 -7 108 -59 17 l-38 -65 -7 36
c-11 50 -34 82 -70 94 -17 6 -34 10 -37 10 -3 -1 -15 -4 -26 -6z m72 -55 c37
-34 28 -111 -16 -145 -9 -7 -29 -12 -46 -12 -69 0 -104 73 -61 126 48 60 83
69 123 31z m-297 -365 l0 -57 -22 22 c-22 22 -22 22 -4 57 11 19 21 35 23 35
1 0 3 -26 3 -57z"/>
<path d="M2063 1124 c-3 -8 1 -22 9 -30 13 -13 16 -13 28 0 10 13 10 19 0 31
-16 19 -29 19 -37 -1z"/>
<path d="M2235 1095 c-14 -13 -25 -29 -25 -35 0 -5 -9 -10 -20 -10 -12 0 -32
-12 -47 -26 -20 -20 -24 -32 -20 -59 3 -18 13 -45 22 -59 21 -31 127 -86 167
-86 25 0 32 7 48 43 42 95 38 178 -11 227 -38 38 -80 40 -114 5z m112 -34 c16
-24 23 -49 23 -83 0 -56 -35 -148 -57 -148 -26 0 -131 59 -152 86 -25 32 -27
76 -5 98 17 18 60 21 69 6 13 -21 24 -9 14 14 -18 39 4 68 49 64 28 -2 41 -10
59 -37z"/>
<path d="M726 1007 c-10 -8 -18 -26 -18 -40 0 -16 -6 -27 -14 -27 -22 0 -36
-37 -24 -60 15 -27 42 -40 87 -40 51 0 63 14 63 71 0 36 -6 55 -26 78 -28 34
-41 37 -68 18z m11 -69 c-2 -13 -4 -5 -4 17 -1 22 1 32 4 23 2 -10 2 -28 0
-40z m20 30 c-3 -8 -6 -5 -6 6 -1 11 2 17 5 13 3 -3 4 -12 1 -19z m33 -45 c0
-70 -5 -66 -14 10 -4 39 -3 56 4 52 5 -3 10 -31 10 -62z m17 -25 c-3 -7 -5 -2
-5 12 0 14 2 19 5 13 2 -7 2 -19 0 -25z m-120 0 c-3 -8 -6 -5 -6 6 -1 11 2 17
5 13 3 -3 4 -12 1 -19z m20 -15 c-3 -10 -5 -4 -5 12 0 17 2 24 5 18 2 -7 2
-21 0 -30z m20 -10 c-3 -10 -5 -4 -5 12 0 17 2 24 5 18 2 -7 2 -21 0 -30z m40
5 c-3 -8 -6 -5 -6 6 -1 11 2 17 5 13 3 -3 4 -12 1 -19z m-20 -20 c-3 -7 -5 -2
-5 12 0 14 2 19 5 13 2 -7 2 -19 0 -25z"/>
<path d="M867 989 c-8 -31 3 -50 27 -47 28 4 28 36 0 55 -19 12 -22 12 -27 -8z
m33 -33 c-13 -13 -35 7 -25 24 5 8 11 8 21 -1 10 -8 12 -15 4 -23z"/>
<path d="M372 720 c11 -32 42 -60 68 -60 8 0 0 9 -18 20 -18 11 -37 31 -42 45
-14 36 -21 31 -8 -5z"/>
<path d="M427 733 c11 -31 35 -53 57 -52 18 0 16 2 -7 11 -16 6 -30 20 -33 34
-3 13 -10 24 -15 24 -5 0 -6 -8 -2 -17z"/>
<path d="M2178 718 c17 -17 15 -31 -4 -24 -8 3 -12 2 -9 -4 8 -13 32 -13 40 0
8 12 -12 40 -28 40 -7 0 -7 -4 1 -12z"/>
<path d="M2566 643 c-85 -99 -282 -228 -404 -264 -23 -7 -40 -14 -38 -17 14
-13 208 72 296 131 47 31 200 176 200 189 0 17 -17 5 -54 -39z"/>
<path d="M2534 548 c-30 -33 -169 -134 -242 -175 -37 -21 -114 -57 -172 -81
-58 -24 -91 -41 -75 -37 47 10 188 70 259 109 110 62 292 206 259 206 -5 0
-18 -10 -29 -22z"/>
<path d="M1443 515 c-13 -9 -23 -27 -23 -41 0 -17 -6 -24 -18 -24 -25 0 -52
-31 -52 -58 0 -41 61 -81 107 -69 10 3 3 5 -15 6 -35 1 -82 38 -82 65 0 26 29
47 56 40 23 -6 24 -4 18 20 -8 34 10 56 47 56 21 0 32 -7 44 -30 8 -16 15 -36
15 -45 0 -19 -39 -97 -52 -106 -6 -4 -6 -9 1 -13 15 -10 61 89 61 130 0 61
-63 101 -107 69z"/>
<path d="M415 375 c-14 -13 -25 -35 -25 -49 0 -36 72 -122 115 -136 69 -23
125 12 125 79 0 97 -150 172 -215 106z m143 -51 c22 -18 32 -33 32 -53 0 -54
-52 -68 -110 -28 -25 17 -33 30 -36 59 -5 63 46 73 114 22z"/>
<path d="M1577 376 c-33 -27 -28 -49 15 -67 28 -11 33 -11 49 10 22 27 24 52
7 69 -18 18 -40 14 -71 -12z"/>
<path d="M1960 240 c-20 -6 -21 -8 -5 -8 11 0 29 3 40 8 25 11 -1 11 -35 0z"/>
<path d="M1908 223 c7 -3 16 -2 19 1 4 3 -2 6 -13 5 -11 0 -14 -3 -6 -6z"/>
<path d="M258 208 c-14 -11 -15 -21 -8 -57 12 -66 51 -88 98 -55 29 20 30 76
2 104 -23 23 -68 26 -92 8z m60 -37 c19 -11 11 -45 -11 -49 -19 -4 -32 20 -23
43 6 17 15 19 34 6z"/>
</g>
</svg>
