<?xml version="1.0" encoding="utf-8"?>
<!-- Generator: Adobe Illustrator 22.0.0, SVG Export Plug-In . SVG Version: 6.00 Build 0)  -->
<svg version="1.1" id="Слой_1" xmlns="http://www.w3.org/2000/svg" xmlns:xlink="http://www.w3.org/1999/xlink" x="0px" y="0px"
	 viewBox="0 0 100 100" style="enable-background:new 0 0 100 100;" xml:space="preserve">
<style type="text/css">
	.st0{fill:url(#SVGID_1_);}
	.st1{fill:url(#SVGID_2_);}
	.st2{fill:url(#SVGID_3_);}
	.st3{fill:#223C50;}
	.st4{fill:#548FC4;}
	.st5{fill:#A9C1D1;}
	.st6{fill:url(#SVGID_4_);}
	.st7{fill:url(#SVGID_5_);}
</style>
<g>
	<g>
		
			<linearGradient id="SVGID_1_" gradientUnits="userSpaceOnUse" x1="70.8037" y1="89.7134" x2="54.4704" y2="16.3801" gradientTransform="matrix(1 0 0 -1 0 100)">
			<stop  offset="0" style="stop-color:#F28B6C"/>
			<stop  offset="1" style="stop-color:#C7586B"/>
		</linearGradient>
		<path class="st0" d="M47.3,88.9c-0.6,0-1-0.4-1-1s0.4-1,1-1c1.8,0,3.5,1.4,5.2,1.1c1.6-0.2,3.2-2.1,4.7-2.5
			C71,81.2,81.2,68.3,81.2,53c0-18.7-15.2-33.9-33.9-33.9c-0.6,0-1-0.4-1-1s0.4-1,1-1c19.8,0,35.9,16.1,35.9,35.9
			S67.1,88.9,47.3,88.9z"/>
	</g>
	
		<linearGradient id="SVGID_2_" gradientUnits="userSpaceOnUse" x1="17.7552" y1="40.55" x2="77.7552" y2="40.55" gradientTransform="matrix(1 0 0 -1 0 100)">
		<stop  offset="0" style="stop-color:#DFF5FB"/>
		<stop  offset="0.2502" style="stop-color:#D3EEF6"/>
		<stop  offset="1" style="stop-color:#AED8E6"/>
	</linearGradient>
	<path class="st1" d="M71.3,58.5c-0.1,0-1.7,0.2-4.7,0.5l1.8,3.5l-4.6,1.7l-2.6-6l-0.8,0.5c1.5,2.8,2.3,5.4,2.4,8
		c-1.5,1.8-3.1,3.7-4.6,5.7c0,4.1-0.4,7.8-1.3,11.2l-4.6,4L49,85.3c-0.3-4.7-1.1-9.4-2.3-14.2l-2.8-4l-6.2-1.5l-1.6-3.8l1.1-5.5
		c1.8-0.5,4.4-1.5,7.8-3c0.8,0.6,1.8,0.9,3,1.1c1,0.2,2.1,0.3,3.1,0.4c0,0,1.5,0.3,4.5,1.1c1.8,0.5,3.3,0.5,4.6,0.5l1.5-4.2h-1.8
		l-1-5l-4.5,0.4l0.3,1.8l2.3,2.9l-1.8-0.9l0.4,1.3l-3.1,0.8l1.2-0.9l-1-2.6l-2.1-1.5L49,50l-2.4-0.4l-1.5,2.7l-2.7-1.4l2.1-2.6
		l3.2-0.9l1.3-2l4.6-2.2l1-1.2l1-4.4L52.8,39l1.3,0.7l-2,1.9l-0.7-2l-1,1.7l-3-2.5l6.4-5.5h5.3l0.2-1.4c-3.6-1.5-7.5-2.4-11.7-2.4
		c-3.1,0-6,0.5-8.8,1.3c0,0.1,0.1,0.2,0.1,0.2c0,0.3-0.3,0.5-0.9,0.7l-1.2,0.2c-1.1,0.4-2.3,1-3.4,1.9c-1.2,0.9-0.2,3.6-2.1,5.4
		c-1.6,1.6,0.5,2.9-1.6,3.8c-1.1,0.5-3.2-2-3.6-3c-0.2-0.4-0.3-0.7-0.4-1c-5,5.4-8.1,12.5-8.1,20.4c0,16.6,13.4,30,30,30
		s30-13.4,30-30c0-0.1,0-0.3,0-0.4C73.5,58.8,71.3,58.5,71.3,58.5z M51.3,52.2l-0.1,1.5l-1.4-1.5H51.3z M46.3,39.2l3.1,3.6l-1.6,1.7
		l-1.5-0.1l1.4-1.7l-0.9-0.3l-1-1.8L46.3,39.2z M44.5,41.6l0.8,1.4l-1,1.2l-0.5-1.3L44.5,41.6z M40,36.3h2l0.4,1.5l-1.2,1l-2,0.2
		L40,36.3z"/>
	<g>
		
			<linearGradient id="SVGID_3_" gradientUnits="userSpaceOnUse" x1="28.1294" y1="79.95" x2="47.7317" y2="79.95" gradientTransform="matrix(1 0 0 -1 0 100)">
			<stop  offset="0" style="stop-color:#DFF5FB"/>
			<stop  offset="0.2502" style="stop-color:#D3EEF6"/>
			<stop  offset="1" style="stop-color:#AED8E6"/>
		</linearGradient>
		<path class="st2" d="M46.1,25.7H29.8c-0.9,0-1.6-0.7-1.6-1.6V16c0-0.9,0.7-1.6,1.6-1.6h16.3c0.9,0,1.6,0.7,1.6,1.6v8
			C47.7,24.9,47,25.7,46.1,25.7z"/>
		<path class="st3" d="M31.3,14.3h-2c-0.6,0-1.1,0.7-1.1,1.6V24c0,0.9,0.5,1.6,1.1,1.6h2V14.3z"/>
		<g>
			<path class="st4" d="M45.2,20h-9.6c-0.3,0-0.5-0.2-0.5-0.5l0,0c0-0.3,0.2-0.5,0.5-0.5h9.6c0.3,0,0.5,0.2,0.5,0.5l0,0
				C45.7,19.8,45.5,20,45.2,20z"/>
		</g>
		<g>
			<path class="st4" d="M45.2,21.9h-9.6c-0.3,0-0.5-0.2-0.5-0.5l0,0c0-0.3,0.2-0.5,0.5-0.5h9.6c0.3,0,0.5,0.2,0.5,0.5l0,0
				C45.7,21.7,45.5,21.9,45.2,21.9z"/>
		</g>
		<g>
			<path class="st4" d="M42.1,23.6h-6.5c-0.3,0-0.5-0.2-0.5-0.5l0,0c0-0.3,0.2-0.5,0.5-0.5h6.5c0.3,0,0.5,0.2,0.5,0.5l0,0
				C42.6,23.4,42.4,23.6,42.1,23.6z"/>
		</g>
		<g>
			<path class="st5" d="M45.2,17.9h-9.6c-0.3,0-0.5-0.2-0.5-0.5l0,0c0-0.3,0.2-0.5,0.5-0.5h9.6c0.3,0,0.5,0.2,0.5,0.5l0,0
				C45.7,17.7,45.5,17.9,45.2,17.9z"/>
			<circle class="st5" cx="33.7" cy="17.4" r="1.1"/>
		</g>
	</g>
	<g>
		
			<linearGradient id="SVGID_4_" gradientUnits="userSpaceOnUse" x1="66.2" y1="72.45" x2="82.0011" y2="72.45" gradientTransform="matrix(1 0 0 -1 0 100)">
			<stop  offset="0" style="stop-color:#DFF5FB"/>
			<stop  offset="0.2502" style="stop-color:#D3EEF6"/>
			<stop  offset="1" style="stop-color:#AED8E6"/>
		</linearGradient>
		<path class="st6" d="M80.9,32.1H67.3c-0.6,0-1.1-0.5-1.1-1.1v-6.9c0-0.6,0.5-1.1,1.1-1.1h13.5c0.6,0,1.1,0.5,1.1,1.1V31
			C82,31.6,81.5,32.1,80.9,32.1z"/>
		<path class="st3" d="M68.7,23h-1.6c-0.5,0-0.9,0.6-0.9,1.3v6.5c0,0.7,0.4,1.3,0.9,1.3h1.6V23z"/>
		<g>
			<path class="st4" d="M80,27.6h-7.8c-0.2,0-0.4-0.2-0.4-0.4l0,0c0-0.2,0.2-0.4,0.4-0.4H80c0.2,0,0.4,0.2,0.4,0.4l0,0
				C80.4,27.4,80.2,27.6,80,27.6z"/>
		</g>
		<g>
			<path class="st4" d="M80,29.1h-7.8c-0.2,0-0.4-0.2-0.4-0.4l0,0c0-0.2,0.2-0.4,0.4-0.4H80c0.2,0,0.4,0.2,0.4,0.4l0,0
				C80.4,28.9,80.2,29.1,80,29.1z"/>
		</g>
		<g>
			<path class="st4" d="M77.5,30.5h-5.2c-0.2,0-0.4-0.2-0.4-0.4l0,0c0-0.2,0.2-0.4,0.4-0.4h5.2c0.2,0,0.4,0.2,0.4,0.4l0,0
				C77.8,30.3,77.7,30.5,77.5,30.5z"/>
		</g>
		<g>
			<path class="st5" d="M80,25.9h-7.8c-0.2,0-0.4-0.2-0.4-0.4l0,0c0-0.2,0.2-0.4,0.4-0.4H80c0.2,0,0.4,0.2,0.4,0.4l0,0
				C80.4,25.7,80.2,25.9,80,25.9z"/>
			<circle class="st5" cx="70.7" cy="25.5" r="0.9"/>
		</g>
	</g>
	<g>
		
			<linearGradient id="SVGID_5_" gradientUnits="userSpaceOnUse" x1="79" y1="51.15" x2="89.5165" y2="51.15" gradientTransform="matrix(1 0 0 -1 0 100)">
			<stop  offset="0" style="stop-color:#DFF5FB"/>
			<stop  offset="0.2502" style="stop-color:#D3EEF6"/>
			<stop  offset="1" style="stop-color:#AED8E6"/>
		</linearGradient>
		<path class="st7" d="M88.5,51.9h-8.1c-0.8,0-1.4-0.6-1.4-1.4v-3.3c0-0.8,0.6-1.4,1.4-1.4h8.1c0.5,0,1,0.4,1,1V51
			C89.5,51.5,89.1,51.9,88.5,51.9z"/>
		<path class="st3" d="M80.7,45.8h-1.1c-0.3,0-0.6,0.4-0.6,0.9V51c0,0.5,0.3,0.9,0.6,0.9h1.1V45.8z"/>
		<g>
			<path class="st4" d="M88.2,48.9H83c-0.1,0-0.3-0.1-0.3-0.3l0,0c0-0.1,0.1-0.3,0.3-0.3h5.2c0.1,0,0.3,0.1,0.3,0.3l0,0
				C88.4,48.8,88.3,48.9,88.2,48.9z"/>
		</g>
		<g>
			<path class="st4" d="M88.2,49.9H83c-0.1,0-0.3-0.1-0.3-0.3l0,0c0-0.1,0.1-0.3,0.3-0.3h5.2c0.1,0,0.3,0.1,0.3,0.3l0,0
				C88.4,49.8,88.3,49.9,88.2,49.9z"/>
		</g>
		<g>
			<path class="st4" d="M86.5,50.8H83c-0.1,0-0.3-0.1-0.3-0.3l0,0c0-0.1,0.1-0.3,0.3-0.3h3.5c0.1,0,0.3,0.1,0.3,0.3l0,0
				C86.7,50.7,86.6,50.8,86.5,50.8z"/>
		</g>
		<g>
			<path class="st5" d="M88.2,47.8H83c-0.1,0-0.3-0.1-0.3-0.3l0,0c0-0.1,0.1-0.3,0.3-0.3h5.2c0.1,0,0.3,0.1,0.3,0.3l0,0
				C88.4,47.7,88.3,47.8,88.2,47.8z"/>
			<circle class="st5" cx="82" cy="47.5" r="0.6"/>
		</g>
	</g>
</g>
</svg>
